<svg xmlns="http://www.w3.org/2000/svg" style="display: none;">
  <symbol id="icon-alignment" viewBox="0 0 512 512">
    <path d="m117 131l0 44-5-2c-2 0-4 0-6 1l-60 25c-2 1-4 3-4 5-1 3-1 5 1 7l59 84c1 2 2 3 4 4l113 38 0 4-152 0c-5 0-9 4-9 9l0 100c0 5 4 9 9 9l152 0 0 42c0 5 4 8 8 8l51 0c5 0 9-3 9-8l0-42 159 0c5 0 9-4 9-9l0-100c0-5-4-9-9-9l-58 0 0-67c0-4-2-7-5-8l-96-33 0-39 112-38c2-1 4-2 5-4l59-84c1-2 2-4 1-7-1-2-2-4-5-5l-59-25c-2-1-4-1-6-1l-107 37 0-54c0-5-4-8-9-8l-51 0c-4 0-8 3-8 8l0 77-96 33c-3 1-6 4-6 8z m153 361l-34 0 0-33 34 0z m110-100c0 0 0 0 0 0 0 0 0 0 0 0 1 0 1-1 2-1 0 0 0 0 1 0 3-1 5-4 5-8l0-25 50 0 0 84-363 0 0-84 205 0 97 33c1 0 2 1 3 1z m-144-371l34 0 0 52-34 11z m-102 166l0-50 262-90 47 20-52 74-257 87z m136 13l0 27-34-11 0-5z m-145 49c1 0 1 0 1 0 0 0 0 0 0 0 1 0 2-1 3-1l75-26 167 58 0 91-257-87-51-74 46-20 8 3 0 47c0 3 2 5 4 7 1 0 1 1 2 1 0 0 0 0 1 0 0 0 1 0 1 1z"/>
  </symbol>

  <symbol id="icon-change" viewBox="0 0 512 512">
    <path d="m168 411c-6-6-14-6-20 0-5 5-5 14 0 19l16 15-63 0c-40 0-73-33-73-73l0-46c0-7-7-13-14-13-8 0-14 6-14 13l0 46c0 55 46 100 101 100l63 0-16 16c-5 5-5 14 0 19 3 3 6 4 10 4 3 0 7-1 10-4l38-39c5-5 5-13 0-19z m70-411l-223 0c-8 0-14 6-14 14l0 222c0 8 6 14 14 14l223 0c8 0 14-6 14-14l0-222c0-8-6-14-14-14z m-13 223l-196 0 0-196 196 0z m186-184l-63 0 16-16c5-5 5-14 0-19-6-5-14-5-20 0l-38 39c-5 5-5 13 0 19l38 38c3 3 7 4 10 4 4 0 7-1 10-4 5-5 5-14 0-19l-16-15 63 0c41 0 73 33 73 73l0 46c0 7 7 13 14 13 8 0 14-6 14-13l0-46c0-55-46-100-101-100z m86 445c-4 0-7 1-10 4-2 2-4 6-4 9 0 4 2 7 4 10 3 2 6 4 10 4 4 0 7-2 10-4 2-3 4-6 4-10 0-3-2-7-4-9-3-3-6-4-10-4z m-56 0c-7 0-13 6-13 13 0 8 6 14 13 14 8 0 14-6 14-14 0-7-6-13-14-13z m-111 0c-8 0-14 6-14 13 0 8 6 14 14 14 7 0 13-6 13-14 0-7-6-13-13-13z m55 0c-7 0-13 6-13 13 0 8 6 14 13 14 8 0 14-6 14-14 0-7-6-13-14-13z m-111 0c-4 0-7 1-10 4-2 2-4 6-4 9 0 4 2 7 4 10 3 2 6 4 10 4 3 0 7-2 9-4 3-3 4-6 4-10 0-3-1-7-4-9-2-3-6-4-9-4z m0-56c-8 0-14 6-14 14 0 7 6 13 14 13 7 0 13-6 13-13 0-8-6-14-13-14z m0-56c-8 0-14 6-14 14 0 7 6 13 14 13 7 0 13-6 13-13 0-8-6-14-13-14z m0-55c-8 0-14 6-14 13 0 8 6 14 14 14 7 0 13-6 13-14 0-7-6-13-13-13z m0-56c-4 0-7 1-10 4-2 2-4 6-4 10 0 3 2 7 4 9 3 3 6 4 10 4 3 0 7-1 9-4 3-2 4-6 4-9 0-4-1-8-4-10-2-3-6-4-9-4z m167 0c-7 0-13 6-13 14 0 7 6 13 13 13 8 0 14-6 14-13 0-8-6-14-14-14z m-56 0c-7 0-13 6-13 14 0 7 6 13 13 13 8 0 14-6 14-13 0-8-6-14-14-14z m-55 0c-8 0-14 6-14 14 0 7 6 13 14 13 7 0 13-6 13-13 0-8-6-14-13-14z m167 0c-4 0-7 1-10 4-2 2-4 6-4 10 0 3 2 7 4 9 3 3 6 4 10 4 4 0 7-1 10-4 2-2 4-6 4-9 0-4-2-8-4-10-3-3-6-4-10-4z m0 56c-7 0-14 6-14 13 0 8 7 14 14 14 8 0 14-6 14-14 0-7-6-13-14-13z m0 111c-7 0-14 6-14 14 0 7 7 13 14 13 8 0 14-6 14-13 0-8-6-14-14-14z m0-56c-7 0-14 6-14 14 0 7 7 13 14 13 8 0 14-6 14-13 0-8-6-14-14-14z"/>
  </symbol>

  <symbol id="icon-flag" viewBox="0 0 512 512">
    <path d="m92 5c-19 0-36 17-36 37 0 9 4 17 9 24l0 442 18 0 0-431c3 1 6 1 9 1 4 0 7 0 9-1l0 431 19 0 0-210 163 0c-1 0-2 1-2 2-3 2-6 4-9 7-3 2-5 4-7 8-1 3-2 5-1 9 1 3 4 6 6 8 5 2 9 2 15 2l169 0c5 0 9-4 9-9l0-201c0-5-4-9-9-9l-165 0c1-1 2-1 3-2 3-2 6-5 8-7 3-3 5-5 7-10 1-2 1-6 0-9-2-3-4-5-7-6-4-2-9-3-15-3l-165 0 0-12c5-7 9-15 9-24 0-20-17-37-37-37z m0 18c11 0 19 9 19 19 0 10-8 18-19 18-10 0-18-8-18-18 0-10 8-19 18-19z m28 74l163 0c-1 0-2 1-2 2-3 2-6 4-9 7-3 2-5 4-7 8-1 2-2 5-1 9 1 3 4 6 6 7 5 3 9 3 15 3l160 0 0 183-156 0c1-1 2-1 3-2 3-2 6-5 8-7 3-3 5-5 7-10 1-2 1-6 0-9-2-3-4-5-7-6-4-2-9-3-15-3l-165 0z"/>
  </symbol>

  <symbol id="icon-parcel" viewBox="0 0 512 512">
    <path d="m247 14c-1 0-1 0-1 0 0 0 0 0 0 0-1 0-2 0-3 0l-224 93c-5 1-8 5-8 9l0 281c0 2 0 3 1 4 0 0 0 0 0 0 0 1 0 1 0 1 1 2 3 4 5 4l224 93c2 1 4 2 7 2 1 0 3-1 4-2l225-93c3-1 5-4 6-7 0 0 0 0 0-1 0 0 0 0 0 0 0 0 0 0 0 0 0 0 0-1 0-1l0-281c0-4-3-8-8-9l-224-93c0 0 0 0-1 0 0 0 0 0 0 0 0 0 0 0-1 0 0 0 0 0 0 0 0 0 0 0-1 0 0 0 0 0 0 0 0 0 0 0 0 0-1 0-1 0-1 0z m0 19l47 20-201 83c0 0 0 0 0 0l-48-19z m72 30l58 24-205 85c-4 1-7 5-6 9 0 0 0 1 0 1l0 100-21-30c-3-4-8-5-13-3l-24 12 0-111z m82 34l48 20-202 83-48-20 202-83c0 0 0 0 0 0z m-371 34l58 24 0 121c0 3 2 6 5 8 3 2 6 2 9 0l31-15 34 49c1 2 3 3 5 4 0 0 0 0 1 0 0 0 0 0 0 0 0 1 1 1 2 1 0 0 0 0 1 0 0 0 0 0 1 0 0 0 0 0 1 0 0 0 0-1 0-1 0 0 0 0 1 0 4-1 7-5 6-10l0-117 52 21 0 261-207-86z m434 0l0 260-207 86 0-261z m-122 215c0 0 0 0 0 0-1 0-2 0-4 1l-56 23c-5 2-7 8-5 13 2 4 8 7 13 5l56-24c5-1 7-6 6-11-1-4-5-7-10-7z m56 14c-1 0-2 0-3 1l-57 23-56 24c-5 2-7 7-5 12 2 5 8 7 13 5l56-23 57-24c4-2 6-6 5-11-1-4-5-7-10-7z"/>
  </symbol>
</svg>